<?xml version="1.0" standalone="no"?>
<!DOCTYPE svg PUBLIC "-//W3C//DTD SVG 20010904//EN"
 "http://www.w3.org/TR/2001/REC-SVG-20010904/DTD/svg10.dtd">
<svg version="1.0" xmlns="http://www.w3.org/2000/svg"
 width="512.000000pt" height="512.000000pt" viewBox="0 0 512.000000 512.000000"
 preserveAspectRatio="xMidYMid meet">
<metadata>
Created by potrace 1.11, written by Peter Selinger 2001-2013
</metadata>
<g transform="translate(0.000000,512.000000) scale(0.100000,-0.100000)"
fill="#000000" stroke="none">
<path d="M1165 4630 c-106 -22 -207 -75 -287 -152 -96 -94 -149 -188 -172
-308 -18 -90 -16 -3172 2 -3241 52 -206 219 -375 423 -428 71 -19 124 -20
1419 -20 1454 -1 1416 -2 1533 52 155 72 283 225 328 392 11 41 13 346 14
1614 1 904 -2 1585 -7 1615 -24 135 -78 232 -187 333 -66 62 -129 98 -225 129
l-71 23 -1365 -1 c-751 0 -1383 -4 -1405 -8z m2791 -337 c54 -29 102 -79 128
-133 l21 -45 1 -1540 c0 -891 -3 -1555 -8 -1575 -13 -49 -64 -122 -106 -151
-75 -51 -15 -49 -1447 -46 l-1340 2 -40 21 c-57 31 -101 76 -127 131 l-23 48
-1 1536 c0 1134 3 1549 11 1583 22 84 84 150 172 182 31 11 269 13 1378 11
l1340 -2 41 -22z"/>
<path d="M1840 3775 c-74 -15 -126 -44 -179 -98 -52 -53 -85 -107 -102 -169
-16 -59 -15 -354 1 -404 21 -63 56 -127 90 -161 38 -38 120 -92 150 -98 12 -2
31 -7 43 -11 28 -9 1396 -8 1439 1 61 13 136 56 182 105 92 99 114 182 109
414 -4 166 -29 238 -111 322 -55 56 -119 89 -198 103 -84 15 -1350 12 -1424
-4z m1392 -324 c19 -16 21 -27 21 -145 0 -101 -3 -131 -15 -143 -14 -13 -99
-15 -678 -15 -576 0 -664 2 -678 15 -11 12 -15 43 -15 143 0 118 2 129 21 145
20 16 71 17 672 17 598 0 652 -2 672 -17z"/>
<path d="M1641 2279 c-87 -34 -120 -162 -63 -238 80 -108 247 -80 281 47 35
129 -93 241 -218 191z"/>
<path d="M2500 2283 c-29 -10 -80 -67 -91 -100 -52 -159 143 -281 261 -163 69
69 66 158 -6 228 -41 39 -48 42 -97 41 -28 0 -59 -3 -67 -6z"/>
<path d="M3329 2267 c-45 -29 -78 -95 -74 -147 10 -119 149 -188 244 -121 71
51 92 128 56 205 -39 82 -151 113 -226 63z"/>
<path d="M3381 1649 c-145 -31 -171 -234 -37 -298 50 -25 81 -26 127 -7 64 27
99 81 99 152 0 99 -92 174 -189 153z"/>
<path d="M1631 1633 c-49 -24 -84 -83 -83 -138 3 -123 119 -197 226 -145 61
29 90 77 89 147 -1 60 -32 111 -83 138 -38 20 -107 19 -149 -2z"/>
<path d="M2480 1628 c-57 -39 -75 -73 -75 -137 1 -71 29 -115 93 -143 152 -67
291 120 184 248 -47 56 -144 71 -202 32z"/>
</g>
</svg>
